<svg id="Group_209" data-name="Group 209" xmlns="http://www.w3.org/2000/svg" width="117.215" height="32.002" viewBox="0 0 117.215 32.002">
  <g id="Group_206" data-name="Group 206" transform="translate(7.06 5.7)">
    <path id="Path_7036" data-name="Path 7036" d="M25.4-96.158l5.221-10.894h1.206v13.194H30.9v-11.78L25.91-95.121H24.891L19.9-105.638v11.78h-.924v-13.194h1.206Z" transform="translate(-18.973 107.297)" fill="#fff"/>
    <path id="Path_7037" data-name="Path 7037" d="M79.546-107.711a6.675,6.675,0,0,1,6.672,6.842,6.68,6.68,0,0,1-6.691,6.842,6.626,6.626,0,0,1-6.653-6.842A6.665,6.665,0,0,1,79.546-107.711Zm0,12.779a5.684,5.684,0,0,0,5.673-5.937,5.707,5.707,0,0,0-5.673-5.937,5.7,5.7,0,0,0-5.673,5.937,5.673,5.673,0,0,0,5.673,5.937Z" transform="translate(-52.817 107.711)" fill="#fff"/>
    <path id="Path_7038" data-name="Path 7038" d="M128.067-107.052h3.45a3.362,3.362,0,0,1,3.638,3.374,3.218,3.218,0,0,1-1.772,2.9,3.338,3.338,0,0,1,2.224,3.223,3.675,3.675,0,0,1-3.654,3.7c-.045,0-.09,0-.135,0h-3.752Zm3.562,5.879a2.452,2.452,0,0,0,2.525-2.377c0-.043,0-.086,0-.129a2.416,2.416,0,0,0-2.339-2.49c-.062,0-.125,0-.187,0h-2.6v4.994Zm-.112,6.446a2.776,2.776,0,0,0,3.091-2.828c0-1.811-1.377-2.754-3.129-2.754h-2.45v5.579Z" transform="translate(-87.472 107.297)" fill="#fff"/>
    <path id="Path_7039" data-name="Path 7039" d="M167.714-107.052h.961v13.194h-.961Z" transform="translate(-112.366 107.297)" fill="#fff"/>
    <path id="Path_7040" data-name="Path 7040" d="M191.712-107.052h.961v12.308h5.259v.886h-6.22Z" transform="translate(-127.434 107.297)" fill="#fff"/>
    <path id="Path_7041" data-name="Path 7041" d="M227.161-107.052h.943l8.086,11.629v-11.629h.962v13.194h-.962l-8.067-11.647v11.647h-.961Z" transform="translate(-149.692 107.297)" fill="#fff"/>
    <path id="Path_7042" data-name="Path 7042" d="M274.727-98.59l-1.791,4.731h-.98l5.051-13.194h.942L283-93.859h-.98l-1.79-4.731Zm2.752-7.37-2.412,6.484h4.825Z" transform="translate(-177.818 107.298)" fill="#fff"/>
  </g>
  <g id="Group_208" data-name="Group 208" transform="translate(62.85 18.861)">
    <g id="Group_207" data-name="Group 207" transform="translate(0 0)">
      <path id="Path_7043" data-name="Path 7043" d="M169.3-62.91c-.051.115-.128.141-.2.037-.192-.269-.294-.64-.064-1.408a43.347,43.347,0,0,1,3.3-6.516c.115-.154.205-.141.307.026.166.294.23.909-.294,1.868-.333.6-.755,1.357-1.216,2.215a37.059,37.059,0,0,0,4.686-4.173c.09-.1.192-.09.243.026a1.551,1.551,0,0,1-.4,1.344,21.708,21.708,0,0,1-4.045,3.558,14.278,14.278,0,0,1,.909,1.6,1.365,1.365,0,0,1,0,1.421c-.077.09-.166.09-.231-.025a25.03,25.03,0,0,0-1.677-2.778C170.173-64.856,169.725-63.9,169.3-62.91Z" transform="translate(-168.902 71.456)" fill="#fff"/>
      <path id="Path_7044" data-name="Path 7044" d="M184.944-60.709a3.962,3.962,0,0,1-2.023,2.7,1.408,1.408,0,0,1-1.613-.563,2.679,2.679,0,0,1,.205-2.881,2.971,2.971,0,0,1,2.035-1.664.873.873,0,0,1,.87.435c.294.4.679.487.6,1.408-.013.1-.013.192-.025.295.077,0,.154-.026.256-.026s.09.064.037.128A.521.521,0,0,1,184.944-60.709Zm-1.088-.32a1.59,1.59,0,0,1-.589-1.126,4.48,4.48,0,0,0-.986,1.2c-.538.973-.73,2.151-.4,2.433.359.294,1.139-.154,1.767-1.332a6.742,6.742,0,0,0,.447-1.024A.952.952,0,0,1,183.856-61.029Zm.435-1.139c-.064-.409-.32-.333-.384.037a1.053,1.053,0,0,0,.282.909,2.452,2.452,0,0,0,.1-.946Z" transform="translate(-176.48 66.554)" fill="#fff"/>
      <path id="Path_7045" data-name="Path 7045" d="M193.932-63.329a1.385,1.385,0,0,1,.461-.986c.282-.256.576-.307.691-.192s.064.269-.1.563c-.051.077-.089.154-.141.243-.09,1.178.154,2.176.115,3.06a1.586,1.586,0,0,1-.576,1.344,3.274,3.274,0,0,0,1.715-1.779c.064-.141.192-.1.243,0a1.157,1.157,0,0,1-.179.845,2.7,2.7,0,0,1-2.266,1.408,1.89,1.89,0,0,1-1.894-.96,1.541,1.541,0,0,1,.166-1.779c.154-.128.256-.077.269.128.013.1.013.2.025.307A25.28,25.28,0,0,0,193.932-63.329Zm-1.357,2.893c.192.744.563,1.267.986,1.139.589-.179.4-2.189.345-3.213a22.5,22.5,0,0,1-1.331,2.074Z" transform="translate(-183.279 67.46)" fill="#fff"/>
      <path id="Path_7046" data-name="Path 7046" d="M206-63.334c.435.013.666.691.5,1.255a3.961,3.961,0,0,1,1.895-1.191c.461.013.563.768.307,1.408-.231.576-.856,1.421-1.178,2.061-.358.73-.179,1.318.282,1.306.525-.013,1.1-.858,1.6-1.754.064-.115.166-.115.231-.026a1.25,1.25,0,0,1-.115.806,2.421,2.421,0,0,1-1.92,1.37c-1.114,0-1.523-.884-1.05-1.935s1.613-2.5,1.421-2.56c-.1-.037-.537.1-1.37.934a11.137,11.137,0,0,0-2.227,3.495c-.077.154-.179.192-.294.064-.217-.192-.4-.691-.026-1.613.422-1.063,1.805-2.828,1.549-2.919-.154-.064-.781.282-1.6,1.178a11.5,11.5,0,0,0-1.882,3.213c-.051.115-.128.166-.243.064-.282-.243-.346-.666-.128-1.318a21.134,21.134,0,0,1,2.009-3.815c.089-.141.192-.128.269,0a1.6,1.6,0,0,1-.013,1.37C204.579-62.591,205.54-63.347,206-63.334Z" transform="translate(-189.446 66.734)" fill="#fff"/>
      <path id="Path_7047" data-name="Path 7047" d="M223.9-58.4c1.062.051,2-.973,2.547-1.818.064-.1.166-.1.218.013a1.04,1.04,0,0,1-.218.793,3.243,3.243,0,0,1-2.509,1.382c-1.626.026-2.189-1.575-1.357-3.226s2.138-2.317,2.778-1.946a2.392,2.392,0,0,1,.755.666,1.659,1.659,0,0,1-.409,1.741,1.559,1.559,0,0,1-2.382.372C222.916-59.246,223.223-58.439,223.9-58.4Zm1.062-2.945c.409-.538.691-1.2.512-1.344-.269-.218-1.331.55-1.935,1.766-.037.077-.077.154-.1.218.629.4,1.154-.154,1.525-.64Z" transform="translate(-202.369 66.665)" fill="#fff"/>
      <path id="Path_7048" data-name="Path 7048" d="M233.807-67.362c-.128-.179-.051-.269.141-.256a7.237,7.237,0,0,0,1.062-.051,16.442,16.442,0,0,1,.973-1.587c.115-.166.243-.154.307,0a1.746,1.746,0,0,1-.166,1.446.8.8,0,0,1,.794.384c.09.154.037.243-.154.243a3.82,3.82,0,0,0-1,.051c-.5.858-1.228,2.1-1.715,3.175-.423.935-.282,1.728.256,1.754.576.026,1.305-.883,1.779-1.843.077-.154.218-.179.269,0a1.072,1.072,0,0,1-.128.73,2.623,2.623,0,0,1-2.035,1.459c-.845-.025-1.523-.973-.909-2.445.269-.64.806-1.716,1.357-2.727A1.056,1.056,0,0,1,233.807-67.362Z" transform="translate(-209.177 70.481)" fill="#fff"/>
      <path id="Path_7049" data-name="Path 7049" d="M240.689-57.737c-.717,1.715-1.626,3.776-2.688,4.186a.551.551,0,0,1-.73-.269,1.609,1.609,0,0,1-.256-1.587,4.332,4.332,0,0,1,2.739-2.419c.128-.294.256-.614.4-.922a1.881,1.881,0,0,1-1.4.7c-.922-.077-.947-1.011-.653-1.856a13.677,13.677,0,0,1,1.741-3.237.178.178,0,0,1,.237-.083.178.178,0,0,1,.083.083c.307.409.23.947-.243,1.7a11.679,11.679,0,0,0-.986,1.869c-.256.627-.231,1.075.064,1.1.5.037,1.139-.781,1.792-1.894.55-.947,1.1-2.1,1.549-2.754.115-.166.205-.192.32-.09a1.41,1.41,0,0,1-.051,1.434c-.384.744-1.165,2.279-1.7,3.52a6.811,6.811,0,0,0,2.266-1.972c.064-.09.179-.1.205.025a1.15,1.15,0,0,1-.231.744A4.962,4.962,0,0,1,240.689-57.737Zm-3.163,3.482c.166.243,1.216-1.154,2.009-3.033-1.663.96-2.239,2.713-2.008,3.033Z" transform="translate(-211.603 66.642)" fill="#fff"/>
      <path id="Path_7050" data-name="Path 7050" d="M257.2-62.438c.269.538-.243,1.216-.5,1.907-.051.154-.1.192-.269.1-.307-.153-.486-.538-.307-1.114.141-.461.525-1.011.346-1.154-.218-.179-1.178.64-1.754,1.805-.7,1.447-.435,2.509.32,2.522,1.075.013,2-1.011,2.522-1.818.064-.1.179-.115.231.013a1.161,1.161,0,0,1-.231.768,3.2,3.2,0,0,1-2.471,1.4c-1.626.025-2.176-1.563-1.344-3.213.819-1.613,2.112-2.3,2.754-1.92A1.688,1.688,0,0,1,257.2-62.438Z" transform="translate(-221.929 66.632)" fill="#fff"/>
      <path id="Path_7051" data-name="Path 7051" d="M266.337-58.95c-.179-.231-.96-.154-1.6.295-.09.063-.179.089-.218-.013a.96.96,0,0,1,.551-1.2c1.92-1.1,2.739-2.356,2.394-2.791s-2.087.474-3.072,1.7c-.077.1-.166.064-.192-.037a1.535,1.535,0,0,1,.525-1.382,3.481,3.481,0,0,1,1.856-.935,1.133,1.133,0,0,1,1.267.461,1.5,1.5,0,0,1-.051,1.7,5.994,5.994,0,0,1-1.895,1.715,1.1,1.1,0,0,1,.806.256,1.155,1.155,0,0,1,.333.627,3.8,3.8,0,0,0,1.536-1.651.122.122,0,0,1,.156-.075.122.122,0,0,1,.075.075,1.222,1.222,0,0,1-.179.793,3.322,3.322,0,0,1-1.563,1.216,5.564,5.564,0,0,1-2.138,3.751.574.574,0,0,1-.8-.116.52.52,0,0,1-.041-.064,1.318,1.318,0,0,1-.294-1.5,4.5,4.5,0,0,1,2.624-2.176A.829.829,0,0,0,266.337-58.95ZM264.3-55.059c.23.269,1.563-1.524,2-2.817-1.7.96-2.24,2.522-2,2.817Z" transform="translate(-228.407 66.691)" fill="#fff"/>
      <path id="Path_7052" data-name="Path 7052" d="M279.18-69.084c.486-.166.794.025,1.05.563a1.216,1.216,0,0,1-.269,1.5,4.173,4.173,0,0,1-1.779,1.037c.051,1.05.409,1.78.9,1.83.525.051,1.228-.934,1.613-1.728.077-.154.192-.166.256-.013a.97.97,0,0,1-.154.781,2.269,2.269,0,0,1-1.907,1.344c-.9-.013-1.651-.744-1.626-2.471,0-.23.025-.269.269-.345,1.587-.525,2.432-1.637,2.24-1.972-.141-.231-.7-.09-1.383.435-.96.729-1.536,1.856-2.522,4.212-.037.1-.141.128-.231.025-.192-.217-.256-.627-.013-1.408a39.553,39.553,0,0,1,3.623-6.926c.115-.154.243-.166.32-.013.192.384.166.9-.372,1.83-.307.525-.807,1.421-1.154,2.047A3.109,3.109,0,0,1,279.18-69.084Z" transform="translate(-235.811 72.343)" fill="#fff"/>
      <path id="Path_7053" data-name="Path 7053" d="M293.371-63.213q.172-.25.307-.077a1.4,1.4,0,0,1-.013,1.421c-.282.576-.922,1.536-1.228,2.215-.32.717-.333,1.267.1,1.241.525-.026,1.228-.9,1.677-1.779.064-.115.154-.128.2-.013a1.149,1.149,0,0,1-.115.793,2.3,2.3,0,0,1-1.843,1.37.994.994,0,0,1-1.05-.933,1.016,1.016,0,0,1,0-.116,2.242,2.242,0,0,1-1.6,1c-1.191,0-1.434-1.626-.372-3.175,1.037-1.511,2.047-2.087,2.688-2.087a.781.781,0,0,1,.794.768.785.785,0,0,1-.013.153Q293.122-62.834,293.371-63.213Zm-1.024.525c-.409-.037-1.344.794-2.047,1.933-.678,1.1-.845,2.227-.346,2.24.525.013,1.191-.807,1.843-1.933.8-1.408.92-2.2.549-2.24Z" transform="translate(-244.164 66.703)" fill="#fff"/>
    </g>
  </g>
  <path id="Path_7092" data-name="Path 7092" d="M59.178-97.329H0v-25.7H117.215v24.753h-.744v-24.009H.744v24.212H59.178Z" transform="translate(0 123.03)" fill="#fff"/>
</svg>
