<svg id="Group_209" data-name="Group 209" xmlns="http://www.w3.org/2000/svg" width="175" height="47.779" viewBox="0 0 175 47.779">
  <g id="Group_206" data-name="Group 206" transform="translate(10.541 8.51)">
    <path id="Path_7036" data-name="Path 7036" d="M28.569-90.788l7.8-16.264h1.8v19.7H36.786v-17.587l-7.457,15.7h-1.52l-7.457-15.7v17.587H18.973v-19.7h1.8Z" transform="translate(-18.973 107.418)"/>
    <path id="Path_7037" data-name="Path 7037" d="M82.836-107.711A9.966,9.966,0,0,1,92.8-97.5a9.973,9.973,0,0,1-9.989,10.215A9.893,9.893,0,0,1,72.874-97.5,9.95,9.95,0,0,1,82.836-107.711Zm0,19.079c4.756,0,8.47-3.743,8.47-8.864a8.52,8.52,0,0,0-8.47-8.864,8.5,8.5,0,0,0-8.47,8.864c0,5.121,3.687,8.863,8.47,8.863Z" transform="translate(-42.929 107.711)"/>
    <path id="Path_7038" data-name="Path 7038" d="M128.067-107.052h5.151c3.179,0,5.431,2.056,5.431,5.037A4.8,4.8,0,0,1,136-97.681a4.984,4.984,0,0,1,3.321,4.812,5.487,5.487,0,0,1-5.455,5.518c-.067,0-.134,0-.2,0h-5.6Zm5.318,8.778a3.661,3.661,0,0,0,3.77-3.549c0-.064,0-.129,0-.193a3.607,3.607,0,0,0-3.492-3.717c-.093,0-.186,0-.279,0H129.5v7.457Zm-.167,9.624c2.673,0,4.615-1.519,4.615-4.222s-2.056-4.111-4.671-4.111H129.5v8.329Z" transform="translate(-67.459 107.418)"/>
    <path id="Path_7039" data-name="Path 7039" d="M167.714-107.052h1.435v19.7h-1.435Z" transform="translate(-85.08 107.418)"/>
    <path id="Path_7040" data-name="Path 7040" d="M191.712-107.052h1.435v18.376H201v1.322h-9.286Z" transform="translate(-95.746 107.418)"/>
    <path id="Path_7041" data-name="Path 7041" d="M227.161-107.052h1.407L240.64-89.69v-17.362h1.436v19.7H240.64L228.6-104.743v17.389h-1.435Z" transform="translate(-111.501 107.418)"/>
    <path id="Path_7042" data-name="Path 7042" d="M276.093-94.418l-2.673,7.063h-1.463l7.542-19.7H280.9l7.542,19.7h-1.463l-2.673-7.063Zm4.108-11-3.6,9.681h7.2Z" transform="translate(-131.41 107.419)"/>
  </g>
  <g id="Group_208" data-name="Group 208" transform="translate(93.835 28.159)">
    <g id="Group_207" data-name="Group 207" transform="translate(0 0)">
      <path id="Path_7043" data-name="Path 7043" d="M169.5-58.956c-.077.172-.191.211-.306.056-.287-.4-.439-.956-.1-2.1a64.717,64.717,0,0,1,4.931-9.728c.172-.229.306-.21.459.038.248.439.344,1.357-.439,2.789-.5.9-1.128,2.026-1.816,3.307a55.33,55.33,0,0,0,7-6.231c.134-.153.287-.134.363.038A2.315,2.315,0,0,1,179-68.782a32.41,32.41,0,0,1-6.039,5.313,21.316,21.316,0,0,1,1.357,2.389,2.038,2.038,0,0,1,0,2.121c-.115.134-.248.134-.344-.038a37.368,37.368,0,0,0-2.5-4.148C170.8-61.861,170.131-60.427,169.5-58.956Z" transform="translate(-168.902 71.715)"/>
      <path id="Path_7044" data-name="Path 7044" d="M186.9-59.519c-.4,1.624-1.606,3.556-3.02,4.033a2.1,2.1,0,0,1-2.408-.841c-.841-1.111-.556-2.771.306-4.3.726-1.3,1.892-2.408,3.039-2.485a1.3,1.3,0,0,1,1.3.649c.439.592,1.013.727.9,2.1-.019.153-.019.287-.038.44.114,0,.229-.038.382-.038.134,0,.134.1.056.191A.778.778,0,0,1,186.9-59.519ZM185.279-60a2.374,2.374,0,0,1-.879-1.681,6.688,6.688,0,0,0-1.472,1.8c-.8,1.453-1.089,3.211-.592,3.632.536.439,1.7-.23,2.638-1.989a10.066,10.066,0,0,0,.667-1.529A1.422,1.422,0,0,1,185.279-60Zm.65-1.7c-.1-.611-.478-.5-.573.056a1.572,1.572,0,0,0,.421,1.357,3.66,3.66,0,0,0,.153-1.412Z" transform="translate(-174.266 68.245)"/>
      <path id="Path_7045" data-name="Path 7045" d="M194.984-62.72a2.068,2.068,0,0,1,.688-1.472c.421-.382.86-.458,1.032-.287.191.192.1.4-.153.841-.076.115-.133.229-.21.363-.134,1.758.229,3.249.172,4.568a2.368,2.368,0,0,1-.86,2.007,4.887,4.887,0,0,0,2.561-2.657c.1-.211.287-.153.363,0a1.728,1.728,0,0,1-.267,1.262,4.027,4.027,0,0,1-3.383,2.1,2.822,2.822,0,0,1-2.828-1.433,2.3,2.3,0,0,1,.248-2.657c.229-.191.382-.114.4.192.019.153.019.306.038.458A37.746,37.746,0,0,0,194.984-62.72ZM192.958-58.4c.287,1.111.841,1.892,1.472,1.7.879-.268.592-3.268.516-4.8a33.592,33.592,0,0,1-1.987,3.1Z" transform="translate(-179.079 68.886)"/>
      <path id="Path_7046" data-name="Path 7046" d="M208.159-63.3c.65.019.994,1.032.746,1.874.917-.9,2.2-1.8,2.829-1.778.688.019.841,1.147.459,2.1-.344.86-1.278,2.122-1.758,3.077-.535,1.089-.268,1.968.421,1.949.783-.019,1.643-1.281,2.389-2.618.1-.172.248-.172.344-.038a1.866,1.866,0,0,1-.172,1.2,3.614,3.614,0,0,1-2.867,2.046c-1.663,0-2.274-1.319-1.567-2.889.707-1.586,2.408-3.727,2.122-3.822-.153-.056-.8.153-2.045,1.395a16.627,16.627,0,0,0-3.326,5.218c-.114.23-.267.287-.439.1-.324-.287-.592-1.032-.038-2.408.631-1.587,2.695-4.222,2.313-4.358-.229-.1-1.167.421-2.389,1.759a17.162,17.162,0,0,0-2.809,4.8c-.076.172-.191.248-.363.1-.421-.363-.516-.994-.191-1.968a31.552,31.552,0,0,1,3-5.695c.133-.211.287-.191.4,0a2.388,2.388,0,0,1-.019,2.045C206.038-62.188,207.471-63.316,208.159-63.3Z" transform="translate(-183.444 68.372)"/>
      <path id="Path_7047" data-name="Path 7047" d="M224.74-55.984c1.586.077,2.982-1.452,3.8-2.714.1-.153.248-.153.326.019a1.553,1.553,0,0,1-.326,1.184A4.841,4.841,0,0,1,224.8-55.43c-2.427.038-3.268-2.351-2.026-4.816s3.192-3.459,4.147-2.9a3.571,3.571,0,0,1,1.128.994,2.477,2.477,0,0,1-.611,2.6c-.936,1.146-2.217,1.643-3.556.556C223.268-57.246,223.726-56.043,224.74-55.984Zm1.586-4.4c.611-.8,1.032-1.8.764-2.007-.4-.325-1.988.822-2.889,2.637-.056.116-.114.23-.153.326.939.591,1.723-.231,2.277-.956Z" transform="translate(-192.591 68.324)"/>
      <path id="Path_7048" data-name="Path 7048" d="M234.183-66.369c-.191-.267-.077-.4.211-.382a10.806,10.806,0,0,0,1.586-.077,24.538,24.538,0,0,1,1.452-2.369c.172-.248.363-.23.459,0a2.606,2.606,0,0,1-.248,2.159,1.2,1.2,0,0,1,1.185.573c.134.23.056.363-.229.363a5.7,5.7,0,0,0-1.491.077c-.746,1.281-1.833,3.134-2.561,4.74-.631,1.4-.421,2.581.382,2.618.86.038,1.949-1.318,2.656-2.752.115-.229.325-.267.4,0a1.6,1.6,0,0,1-.191,1.089c-.248.556-1.51,2.236-3.039,2.178-1.262-.038-2.274-1.452-1.357-3.65.4-.956,1.2-2.562,2.026-4.071A1.577,1.577,0,0,1,234.183-66.369Z" transform="translate(-197.41 71.025)"/>
      <path id="Path_7049" data-name="Path 7049" d="M242.551-55.013c-1.07,2.561-2.427,5.638-4.013,6.25a.823.823,0,0,1-1.089-.4,2.4,2.4,0,0,1-.382-2.37c.573-1.722,2.2-2.867,4.09-3.611.191-.439.382-.917.592-1.376a2.809,2.809,0,0,1-2.083,1.051c-1.376-.114-1.414-1.51-.975-2.772a20.42,20.42,0,0,1,2.6-4.833.265.265,0,0,1,.354-.124.265.265,0,0,1,.124.124c.458.611.344,1.414-.363,2.542a17.438,17.438,0,0,0-1.472,2.79c-.382.937-.344,1.606.1,1.643.746.056,1.7-1.167,2.676-2.828.822-1.414,1.644-3.134,2.313-4.111.172-.248.306-.287.478-.134a2.105,2.105,0,0,1-.077,2.141c-.573,1.111-1.739,3.4-2.542,5.256a10.168,10.168,0,0,0,3.383-2.944c.1-.134.268-.153.306.038a1.718,1.718,0,0,1-.344,1.111A7.407,7.407,0,0,1,242.551-55.013Zm-4.722,5.2c.248.363,1.816-1.722,3-4.529-2.483,1.433-3.343,4.051-3,4.529Z" transform="translate(-199.128 68.307)"/>
      <path id="Path_7050" data-name="Path 7050" d="M259.09-62.039c.4.8-.363,1.816-.746,2.848-.077.23-.153.287-.4.153-.458-.229-.726-.8-.458-1.663.211-.688.783-1.51.516-1.722-.325-.268-1.758.956-2.618,2.695-1.051,2.16-.65,3.746.478,3.765,1.606.019,2.982-1.509,3.765-2.714.1-.153.267-.172.344.019a1.735,1.735,0,0,1-.344,1.147,4.772,4.772,0,0,1-3.689,2.083c-2.428.038-3.249-2.333-2.007-4.8,1.222-2.408,3.154-3.439,4.111-2.867A2.52,2.52,0,0,1,259.09-62.039Z" transform="translate(-206.437 68.3)"/>
      <path id="Path_7051" data-name="Path 7051" d="M267.651-56.786c-.267-.345-1.433-.231-2.389.44-.134.094-.268.133-.325-.02a1.434,1.434,0,0,1,.822-1.8c2.867-1.644,4.09-3.517,3.574-4.167s-3.116.707-4.587,2.542c-.115.153-.248.1-.287-.056a2.292,2.292,0,0,1,.783-2.064,5.2,5.2,0,0,1,2.772-1.4,1.691,1.691,0,0,1,1.892.688,2.247,2.247,0,0,1-.077,2.542A8.949,8.949,0,0,1,267-57.511a1.641,1.641,0,0,1,1.2.382,1.725,1.725,0,0,1,.5.937A5.677,5.677,0,0,0,271-58.658a.183.183,0,0,1,.232-.112.182.182,0,0,1,.112.112,1.824,1.824,0,0,1-.268,1.184,4.96,4.96,0,0,1-2.333,1.816,8.307,8.307,0,0,1-3.192,5.6.857.857,0,0,1-1.2-.173.771.771,0,0,1-.062-.095,1.968,1.968,0,0,1-.439-2.236,6.715,6.715,0,0,1,3.918-3.249A1.237,1.237,0,0,0,267.651-56.786Zm-3.039,5.81c.344.4,2.333-2.275,2.982-4.205-2.542,1.433-3.345,3.766-2.983,4.205Z" transform="translate(-211.022 68.342)"/>
      <path id="Path_7052" data-name="Path 7052" d="M281.013-67.477c.726-.248,1.185.038,1.567.841a1.816,1.816,0,0,1-.4,2.236,6.23,6.23,0,0,1-2.657,1.548c.077,1.567.611,2.657,1.338,2.733.783.077,1.833-1.4,2.408-2.58.115-.229.287-.248.382-.019a1.448,1.448,0,0,1-.229,1.167,3.387,3.387,0,0,1-2.848,2.007c-1.338-.019-2.466-1.111-2.427-3.689,0-.344.038-.4.4-.516,2.37-.784,3.632-2.444,3.344-2.944-.211-.344-1.051-.134-2.064.65-1.433,1.089-2.293,2.771-3.765,6.288-.056.152-.211.191-.344.038-.287-.324-.382-.936-.019-2.1a59.055,59.055,0,0,1,5.409-10.34c.172-.229.363-.248.478-.019.287.573.248,1.338-.556,2.733-.458.783-1.2,2.122-1.722,3.056A4.641,4.641,0,0,1,281.013-67.477Z" transform="translate(-216.263 72.343)"/>
      <path id="Path_7053" data-name="Path 7053" d="M295.641-63.14q.257-.373.458-.114a2.083,2.083,0,0,1-.019,2.121c-.421.86-1.376,2.293-1.833,3.307-.478,1.071-.5,1.892.153,1.853.784-.038,1.833-1.337,2.5-2.657.1-.172.229-.191.306-.019a1.715,1.715,0,0,1-.172,1.184,3.434,3.434,0,0,1-2.752,2.046,1.484,1.484,0,0,1-1.567-1.393,1.516,1.516,0,0,1,0-.174,3.347,3.347,0,0,1-2.389,1.491c-1.778,0-2.141-2.427-.556-4.74,1.548-2.256,3.056-3.116,4.014-3.116a1.167,1.167,0,0,1,1.186,1.147,1.173,1.173,0,0,1-.019.229Q295.268-62.574,295.641-63.14Zm-1.529.784c-.611-.056-2.006,1.185-3.056,2.886-1.013,1.644-1.261,3.326-.516,3.345.784.019,1.778-1.2,2.752-2.886,1.2-2.1,1.373-3.287.819-3.345Z" transform="translate(-222.176 68.35)"/>
    </g>
  </g>
  <path id="Path_7092" data-name="Path 7092" d="M88.352-84.659H0V-123.03H175v36.956h-1.111v-35.845H1.111V-85.77H88.352Z" transform="translate(0 123.03)"/>
</svg>
