<svg xmlns="http://www.w3.org/2000/svg" width="54.769" height="28.841" viewBox="0 0 54.769 28.841">
  <path id="Path_6978" data-name="Path 6978" d="M6.493,1.509H5.967c0,4.571-.728,9.546-5.7,9.546v.526H11.711v-.526C7.181,11.055,6.493,6.2,6.493,1.509ZM32.138,6.848V-12.811c0-2.751,1.375-3.56,3.115-3.56V-16.9h-7.2V6.848c0,3.276-1.213,4.207-2.912,4.207v.526H35.5v-.526C33.756,11.055,32.138,10.124,32.138,6.848ZM1.477-16.9v.526a4.951,4.951,0,0,1,4.449,2.589L17.779,11.945H18.3l1.982-5.339L9.527-16.9ZM55.033,11.055a6.5,6.5,0,0,1-5.339-2.265S44.718,2.115,39.985-4.195C48.723-15.4,50.947-16.37,53.9-16.37V-16.9H42.776v.526c6.027.081,1.335,5.542-.971,8.252l-5.1,6.189S38.893.942,41.2,4.259c4.288,6.108,5.218,7.321,9.506,7.321h4.328Z" transform="translate(-0.264 16.896)"/>
</svg>
